<svg xmlns="http://www.w3.org/2000/svg" xmlns:xlink="http://www.w3.org/1999/xlink" width="500" zoomAndPan="magnify" viewBox="0 0 375 374.999991" height="500" preserveAspectRatio="xMidYMid meet" version="1.0"><defs><g/><clipPath id="eee98b8086"><path d="M 0 0 L 375 0 L 375 374.992188 L 0 374.992188 Z M 0 0 " clip-rule="nonzero"/></clipPath><clipPath id="a9256b03e9"><path d="M 375 48 L 375 326.992188 C 375 339.722656 369.941406 351.929688 360.941406 360.933594 C 351.9375 369.933594 339.730469 374.992188 327 374.992188 L 48 374.992188 C 35.269531 374.992188 23.0625 369.933594 14.058594 360.933594 C 5.058594 351.929688 0 339.722656 0 326.992188 L 0 48 C 0 35.269531 5.058594 23.0625 14.058594 14.058594 C 23.0625 5.058594 35.269531 0 48 0 L 327 0 C 339.730469 0 351.9375 5.058594 360.941406 14.058594 C 369.941406 23.0625 375 35.269531 375 48 Z M 375 48 " clip-rule="nonzero"/></clipPath><clipPath id="b5654b4c13"><path d="M 0 0 L 375 0 L 375 374.992188 L 0 374.992188 Z M 0 0 " clip-rule="nonzero"/></clipPath><clipPath id="d4e1b9ac53"><path d="M 375 48 L 375 326.992188 C 375 339.722656 369.941406 351.929688 360.941406 360.933594 C 351.9375 369.933594 339.730469 374.992188 327 374.992188 L 48 374.992188 C 35.269531 374.992188 23.0625 369.933594 14.058594 360.933594 C 5.058594 351.929688 0 339.722656 0 326.992188 L 0 48 C 0 35.269531 5.058594 23.0625 14.058594 14.058594 C 23.0625 5.058594 35.269531 0 48 0 L 327 0 C 339.730469 0 351.9375 5.058594 360.941406 14.058594 C 369.941406 23.0625 375 35.269531 375 48 Z M 375 48 " clip-rule="nonzero"/></clipPath><clipPath id="81f5fee18d"><rect x="0" width="375" y="0" height="375"/></clipPath><clipPath id="2b3127cf90"><rect x="0" width="283" y="0" height="120"/></clipPath><clipPath id="3bcd66d93b"><path d="M 52.460938 199.53125 L 323 199.53125 L 323 337.496094 L 52.460938 337.496094 Z M 52.460938 199.53125 " clip-rule="nonzero"/></clipPath><clipPath id="e4766ce0f5"><path d="M 322.539062 211.53125 L 322.539062 325.496094 C 322.539062 332.125 317.164062 337.496094 310.539062 337.496094 L 64.460938 337.496094 C 57.835938 337.496094 52.460938 332.125 52.460938 325.496094 L 52.460938 211.53125 C 52.460938 204.902344 57.835938 199.53125 64.460938 199.53125 L 310.539062 199.53125 C 317.164062 199.53125 322.539062 204.902344 322.539062 211.53125 Z M 322.539062 211.53125 " clip-rule="nonzero"/></clipPath><clipPath id="ea81cb9b9a"><path d="M 0.460938 0.53125 L 270.558594 0.53125 L 270.558594 138.496094 L 0.460938 138.496094 Z M 0.460938 0.53125 " clip-rule="nonzero"/></clipPath><clipPath id="6fac2bbc2a"><path d="M 270.539062 12.53125 L 270.539062 126.496094 C 270.539062 133.125 265.164062 138.496094 258.539062 138.496094 L 12.460938 138.496094 C 5.835938 138.496094 0.460938 133.125 0.460938 126.496094 L 0.460938 12.53125 C 0.460938 5.902344 5.835938 0.53125 12.460938 0.53125 L 258.539062 0.53125 C 265.164062 0.53125 270.539062 5.902344 270.539062 12.53125 Z M 270.539062 12.53125 " clip-rule="nonzero"/></clipPath><clipPath id="e5c53ba9f8"><rect x="0" width="271" y="0" height="139"/></clipPath><clipPath id="9058edd085"><rect x="0" width="209" y="0" height="129"/></clipPath></defs><g clip-path="url(#eee98b8086)"><g clip-path="url(#a9256b03e9)"><g transform="matrix(1, 0, 0, 1, 0, 0)"><g clip-path="url(#81f5fee18d)"><g clip-path="url(#b5654b4c13)"><g clip-path="url(#d4e1b9ac53)"><path fill="#d9d9d9" d="M 0 0 L 374.992188 0 L 374.992188 374.992188 L 0 374.992188 Z M 0 0 " fill-opacity="1" fill-rule="nonzero"/></g></g></g></g></g></g><g transform="matrix(1, 0, 0, 1, 46, 37)"><g clip-path="url(#2b3127cf90)"><g fill="#000000" fill-opacity="1"><g transform="translate(1.484376, 94.00003)"><g><path d="M 4.875 -70.453125 L 37.0625 -70.453125 C 40.957031 -70.453125 44.515625 -69.847656 47.734375 -68.640625 C 50.960938 -67.429688 53.734375 -65.703125 56.046875 -63.453125 C 58.359375 -61.210938 60.140625 -58.515625 61.390625 -55.359375 C 62.640625 -52.203125 63.265625 -48.671875 63.265625 -44.765625 C 63.265625 -40.890625 62.601562 -37.378906 61.28125 -34.234375 C 59.96875 -31.097656 58.082031 -28.414062 55.625 -26.1875 C 53.164062 -23.957031 50.242188 -22.238281 46.859375 -21.03125 C 43.484375 -19.832031 39.742188 -19.234375 35.640625 -19.234375 L 25.578125 -19.234375 L 25.578125 0 L 4.875 0 Z M 25.578125 -54.875 L 25.578125 -34.515625 L 31.390625 -34.515625 C 34.835938 -34.515625 37.53125 -35.375 39.46875 -37.09375 C 41.40625 -38.820312 42.375 -41.363281 42.375 -44.71875 C 42.375 -48.070312 41.410156 -50.601562 39.484375 -52.3125 C 37.566406 -54.019531 34.914062 -54.875 31.53125 -54.875 Z M 25.578125 -54.875 "/></g></g></g><g fill="#000000" fill-opacity="1"><g transform="translate(66.220304, 94.00003)"><g><path d="M 30.703125 1.359375 C 24.847656 1.359375 19.804688 0.265625 15.578125 -1.921875 C 11.347656 -4.117188 8.09375 -7.332031 5.8125 -11.5625 C 3.53125 -15.800781 2.390625 -20.945312 2.390625 -27 C 2.390625 -32.925781 3.550781 -37.992188 5.875 -42.203125 C 8.207031 -46.421875 11.488281 -49.648438 15.71875 -51.890625 C 19.945312 -54.140625 24.941406 -55.265625 30.703125 -55.265625 C 36.492188 -55.265625 41.515625 -54.148438 45.765625 -51.921875 C 50.015625 -49.691406 53.296875 -46.46875 55.609375 -42.25 C 57.921875 -38.039062 59.078125 -32.957031 59.078125 -27 C 59.078125 -20.914062 57.9375 -15.765625 55.65625 -11.546875 C 53.375 -7.328125 50.117188 -4.117188 45.890625 -1.921875 C 41.660156 0.265625 36.597656 1.359375 30.703125 1.359375 Z M 30.703125 -12.9375 C 33.210938 -12.9375 35.179688 -14.140625 36.609375 -16.546875 C 38.046875 -18.953125 38.765625 -22.421875 38.765625 -26.953125 C 38.765625 -31.347656 38.039062 -34.78125 36.59375 -37.25 C 35.144531 -39.71875 33.179688 -40.953125 30.703125 -40.953125 C 28.265625 -40.953125 26.320312 -39.71875 24.875 -37.25 C 23.425781 -34.78125 22.703125 -31.347656 22.703125 -26.953125 C 22.703125 -22.421875 23.410156 -18.953125 24.828125 -16.546875 C 26.242188 -14.140625 28.203125 -12.9375 30.703125 -12.9375 Z M 30.703125 -12.9375 "/></g></g></g><g fill="#000000" fill-opacity="1"><g transform="translate(127.685304, 94.00003)"><g><path d="M 3.765625 0 L 3.765625 -53.890625 L 23.28125 -53.890625 L 23.28125 -43.015625 L 23.671875 -43.015625 C 24.359375 -45.453125 25.441406 -47.566406 26.921875 -49.359375 C 28.398438 -51.148438 30.1875 -52.53125 32.28125 -53.5 C 34.382812 -54.476562 36.660156 -54.96875 39.109375 -54.96875 C 43.203125 -54.96875 46.554688 -53.929688 49.171875 -51.859375 C 51.796875 -49.796875 53.4375 -46.878906 54.09375 -43.109375 L 54.484375 -43.109375 C 55.097656 -45.484375 56.1875 -47.554688 57.75 -49.328125 C 59.3125 -51.109375 61.234375 -52.492188 63.515625 -53.484375 C 65.796875 -54.472656 68.300781 -54.96875 71.03125 -54.96875 C 74.550781 -54.96875 77.632812 -54.1875 80.28125 -52.625 C 82.9375 -51.0625 85.007812 -48.890625 86.5 -46.109375 C 88 -43.328125 88.75 -40.097656 88.75 -36.421875 L 88.75 0 L 68.734375 0 L 68.734375 -31.25 C 68.734375 -36.351562 66.554688 -38.90625 62.203125 -38.90625 C 60.179688 -38.90625 58.597656 -38.226562 57.453125 -36.875 C 56.316406 -35.53125 55.75 -33.671875 55.75 -31.296875 L 55.75 0 L 36.765625 0 L 36.765625 -31.203125 C 36.765625 -36.335938 34.597656 -38.90625 30.265625 -38.90625 C 28.242188 -38.90625 26.65625 -38.222656 25.5 -36.859375 C 24.351562 -35.492188 23.78125 -33.640625 23.78125 -31.296875 L 23.78125 0 Z M 3.765625 0 "/></g></g></g><g fill="#000000" fill-opacity="1"><g transform="translate(220.004854, 94.00003)"><g><path d="M 30.703125 1.359375 C 24.847656 1.359375 19.804688 0.265625 15.578125 -1.921875 C 11.347656 -4.117188 8.09375 -7.332031 5.8125 -11.5625 C 3.53125 -15.800781 2.390625 -20.945312 2.390625 -27 C 2.390625 -32.925781 3.550781 -37.992188 5.875 -42.203125 C 8.207031 -46.421875 11.488281 -49.648438 15.71875 -51.890625 C 19.945312 -54.140625 24.941406 -55.265625 30.703125 -55.265625 C 36.492188 -55.265625 41.515625 -54.148438 45.765625 -51.921875 C 50.015625 -49.691406 53.296875 -46.46875 55.609375 -42.25 C 57.921875 -38.039062 59.078125 -32.957031 59.078125 -27 C 59.078125 -20.914062 57.9375 -15.765625 55.65625 -11.546875 C 53.375 -7.328125 50.117188 -4.117188 45.890625 -1.921875 C 41.660156 0.265625 36.597656 1.359375 30.703125 1.359375 Z M 30.703125 -12.9375 C 33.210938 -12.9375 35.179688 -14.140625 36.609375 -16.546875 C 38.046875 -18.953125 38.765625 -22.421875 38.765625 -26.953125 C 38.765625 -31.347656 38.039062 -34.78125 36.59375 -37.25 C 35.144531 -39.71875 33.179688 -40.953125 30.703125 -40.953125 C 28.265625 -40.953125 26.320312 -39.71875 24.875 -37.25 C 23.425781 -34.78125 22.703125 -31.347656 22.703125 -26.953125 C 22.703125 -22.421875 23.410156 -18.953125 24.828125 -16.546875 C 26.242188 -14.140625 28.203125 -12.9375 30.703125 -12.9375 Z M 30.703125 -12.9375 "/></g></g></g></g></g><g clip-path="url(#3bcd66d93b)"><g clip-path="url(#e4766ce0f5)"><g transform="matrix(1, 0, 0, 1, 52, 199)"><g clip-path="url(#e5c53ba9f8)"><g clip-path="url(#ea81cb9b9a)"><g clip-path="url(#6fac2bbc2a)"><path fill="#000000" d="M 0.460938 0.53125 L 270.46875 0.53125 L 270.46875 138.496094 L 0.460938 138.496094 Z M 0.460938 0.53125 " fill-opacity="1" fill-rule="nonzero"/></g></g></g></g></g></g><g transform="matrix(1, 0, 0, 1, 83, 204)"><g clip-path="url(#9058edd085)"><g fill="#b4b4b4" fill-opacity="1"><g transform="translate(2.361428, 100.917897)"><g><path d="M 4.3125 0 L 4.3125 -75.984375 L 25.375 -75.984375 L 25.375 -46.703125 L 25.796875 -46.703125 C 27.242188 -50.773438 29.519531 -53.890625 32.625 -56.046875 C 35.726562 -58.210938 39.492188 -59.296875 43.921875 -59.296875 C 50.453125 -59.296875 55.4375 -57.363281 58.875 -53.5 C 62.3125 -49.632812 64.03125 -44.210938 64.03125 -37.234375 L 64.03125 0 L 42.4375 0 L 42.4375 -32.4375 C 42.4375 -35.351562 41.734375 -37.648438 40.328125 -39.328125 C 38.929688 -41.015625 36.878906 -41.859375 34.171875 -41.859375 C 31.503906 -41.859375 29.457031 -40.972656 28.03125 -39.203125 C 26.613281 -37.429688 25.90625 -35.191406 25.90625 -32.484375 L 25.90625 0 Z M 4.3125 0 "/></g></g></g><g fill="#b4b4b4" fill-opacity="1"><g transform="translate(70.237868, 100.917897)"><g><path d="M 63.34375 -58.140625 L 63.34375 0 L 42.28125 0 L 42.28125 -11.421875 L 41.859375 -11.421875 C 40.703125 -7.492188 38.765625 -4.414062 36.046875 -2.1875 C 33.328125 0.0390625 29.789062 1.15625 25.4375 1.15625 C 21.289062 1.15625 17.582031 0.289062 14.3125 -1.4375 C 11.050781 -3.175781 8.484375 -5.695312 6.609375 -9 C 4.734375 -12.300781 3.796875 -16.253906 3.796875 -20.859375 L 3.796875 -58.140625 L 25.375 -58.140625 L 25.375 -25.703125 C 25.375 -22.609375 26.140625 -20.257812 27.671875 -18.65625 C 29.203125 -17.0625 31.226562 -16.265625 33.75 -16.265625 C 36.175781 -16.265625 38.117188 -17.125 39.578125 -18.84375 C 41.035156 -20.570312 41.765625 -22.835938 41.765625 -25.640625 L 41.765625 -58.140625 Z M 63.34375 -58.140625 "/></g></g></g><g fill="#b4b4b4" fill-opacity="1"><g transform="translate(137.640384, 100.917897)"><g><path d="M 43.859375 0.84375 C 39.617188 0.84375 35.96875 -0.117188 32.90625 -2.046875 C 29.851562 -3.984375 27.660156 -6.65625 26.328125 -10.0625 L 25.90625 -10.0625 L 25.90625 0 L 4.3125 0 L 4.3125 -75.984375 L 25.90625 -75.984375 L 25.90625 -47.65625 L 26.328125 -47.65625 C 27.691406 -51.195312 29.875 -53.96875 32.875 -55.96875 C 35.882812 -57.976562 39.457031 -58.984375 43.59375 -58.984375 C 50.9375 -58.984375 56.570312 -56.398438 60.5 -51.234375 C 64.4375 -46.078125 66.40625 -38.6875 66.40625 -29.0625 C 66.40625 -19.476562 64.457031 -12.097656 60.5625 -6.921875 C 56.664062 -1.742188 51.097656 0.84375 43.859375 0.84375 Z M 35.0625 -42.34375 C 32.257812 -42.34375 30.023438 -41.140625 28.359375 -38.734375 C 26.691406 -36.328125 25.835938 -33.085938 25.796875 -29.015625 C 25.835938 -24.910156 26.679688 -21.679688 28.328125 -19.328125 C 29.984375 -16.972656 32.226562 -15.796875 35.0625 -15.796875 C 37.875 -15.796875 40.113281 -17 41.78125 -19.40625 C 43.445312 -21.8125 44.28125 -25.03125 44.28125 -29.0625 C 44.28125 -31.769531 43.898438 -34.113281 43.140625 -36.09375 C 42.390625 -38.082031 41.320312 -39.617188 39.9375 -40.703125 C 38.550781 -41.796875 36.925781 -42.34375 35.0625 -42.34375 Z M 35.0625 -42.34375 "/></g></g></g></g></g></svg>