<svg xmlns="http://www.w3.org/2000/svg" xmlns:xlink="http://www.w3.org/1999/xlink" width="500" zoomAndPan="magnify" viewBox="0 0 375 89.999999" height="120" preserveAspectRatio="xMidYMid meet" version="1.0"><defs><g/><clipPath id="bb5ba0a489"><path d="M 0.71875 2 L 190 2 L 190 82 L 0.71875 82 Z M 0.71875 2 " clip-rule="nonzero"/></clipPath><clipPath id="ac1d033903"><rect x="0" width="190" y="0" height="80"/></clipPath><clipPath id="3e4932afd9"><path d="M 195.398438 0.933594 L 356.445312 0.933594 L 356.445312 83.0625 L 195.398438 83.0625 Z M 195.398438 0.933594 " clip-rule="nonzero"/></clipPath><clipPath id="384e65f1c6"><path d="M 356.164062 12.933594 L 356.164062 71.0625 C 356.164062 74.246094 354.902344 77.296875 352.652344 79.546875 C 350.398438 81.796875 347.347656 83.0625 344.164062 83.0625 L 207.398438 83.0625 C 204.214844 83.0625 201.164062 81.796875 198.910156 79.546875 C 196.660156 77.296875 195.398438 74.246094 195.398438 71.0625 L 195.398438 12.933594 C 195.398438 9.753906 196.660156 6.699219 198.910156 4.449219 C 201.164062 2.199219 204.214844 0.933594 207.398438 0.933594 L 344.164062 0.933594 C 347.347656 0.933594 350.398438 2.199219 352.652344 4.449219 C 354.902344 6.699219 356.164062 9.753906 356.164062 12.933594 Z M 356.164062 12.933594 " clip-rule="nonzero"/></clipPath><clipPath id="89381e634d"><path d="M 0.398438 0.933594 L 161.398438 0.933594 L 161.398438 83.0625 L 0.398438 83.0625 Z M 0.398438 0.933594 " clip-rule="nonzero"/></clipPath><clipPath id="7551ff3972"><path d="M 161.164062 12.933594 L 161.164062 71.0625 C 161.164062 74.246094 159.902344 77.296875 157.652344 79.546875 C 155.398438 81.796875 152.347656 83.0625 149.164062 83.0625 L 12.398438 83.0625 C 9.214844 83.0625 6.164062 81.796875 3.910156 79.546875 C 1.660156 77.296875 0.398438 74.246094 0.398438 71.0625 L 0.398438 12.933594 C 0.398438 9.753906 1.660156 6.699219 3.910156 4.449219 C 6.164062 2.199219 9.214844 0.933594 12.398438 0.933594 L 149.164062 0.933594 C 152.347656 0.933594 155.398438 2.199219 157.652344 4.449219 C 159.902344 6.699219 161.164062 9.753906 161.164062 12.933594 Z M 161.164062 12.933594 " clip-rule="nonzero"/></clipPath><clipPath id="737c20f1b8"><rect x="0" width="162" y="0" height="84"/></clipPath><clipPath id="97356352d8"><rect x="0" width="124" y="0" height="78"/></clipPath><clipPath id="56a151329e"><rect x="0" width="357" y="0" height="84"/></clipPath></defs><g transform="matrix(1, 0, 0, 1, 12, 3)"><g clip-path="url(#56a151329e)"><g clip-path="url(#bb5ba0a489)"><g transform="matrix(1, 0, 0, 1, 0, 2)"><g clip-path="url(#ac1d033903)"><g fill="#000000" fill-opacity="1"><g transform="translate(1.509489, 62.563286)"><g><path d="M 3.265625 -47.09375 L 24.765625 -47.09375 C 27.378906 -47.09375 29.765625 -46.691406 31.921875 -45.890625 C 34.078125 -45.085938 35.925781 -43.929688 37.46875 -42.421875 C 39.007812 -40.921875 40.195312 -39.113281 41.03125 -37 C 41.875 -34.894531 42.296875 -32.535156 42.296875 -29.921875 C 42.296875 -27.335938 41.851562 -24.992188 40.96875 -22.890625 C 40.09375 -20.796875 38.832031 -19.003906 37.1875 -17.515625 C 35.550781 -16.023438 33.597656 -14.875 31.328125 -14.0625 C 29.066406 -13.257812 26.566406 -12.859375 23.828125 -12.859375 L 17.109375 -12.859375 L 17.109375 0 L 3.265625 0 Z M 17.109375 -36.6875 L 17.109375 -23.078125 L 20.984375 -23.078125 C 23.296875 -23.078125 25.097656 -23.648438 26.390625 -24.796875 C 27.679688 -25.953125 28.328125 -27.648438 28.328125 -29.890625 C 28.328125 -32.140625 27.6875 -33.832031 26.40625 -34.96875 C 25.125 -36.113281 23.347656 -36.6875 21.078125 -36.6875 Z M 17.109375 -36.6875 "/></g></g></g><g fill="#000000" fill-opacity="1"><g transform="translate(44.788168, 62.563286)"><g><path d="M 20.53125 0.90625 C 16.613281 0.90625 13.238281 0.171875 10.40625 -1.296875 C 7.582031 -2.765625 5.40625 -4.910156 3.875 -7.734375 C 2.351562 -10.566406 1.59375 -14.003906 1.59375 -18.046875 C 1.59375 -22.003906 2.367188 -25.390625 3.921875 -28.203125 C 5.484375 -31.023438 7.675781 -33.1875 10.5 -34.6875 C 13.332031 -36.195312 16.675781 -36.953125 20.53125 -36.953125 C 24.40625 -36.953125 27.757812 -36.203125 30.59375 -34.703125 C 33.4375 -33.210938 35.628906 -31.054688 37.171875 -28.234375 C 38.722656 -25.421875 39.5 -22.023438 39.5 -18.046875 C 39.5 -13.984375 38.734375 -10.539062 37.203125 -7.71875 C 35.679688 -4.90625 33.503906 -2.765625 30.671875 -1.296875 C 27.847656 0.171875 24.46875 0.90625 20.53125 0.90625 Z M 20.53125 -8.65625 C 22.207031 -8.65625 23.523438 -9.457031 24.484375 -11.0625 C 25.441406 -12.675781 25.921875 -14.992188 25.921875 -18.015625 C 25.921875 -20.953125 25.4375 -23.25 24.46875 -24.90625 C 23.5 -26.5625 22.1875 -27.390625 20.53125 -27.390625 C 18.894531 -27.390625 17.59375 -26.5625 16.625 -24.90625 C 15.65625 -23.25 15.171875 -20.953125 15.171875 -18.015625 C 15.171875 -14.992188 15.644531 -12.675781 16.59375 -11.0625 C 17.539062 -9.457031 18.851562 -8.65625 20.53125 -8.65625 Z M 20.53125 -8.65625 "/></g></g></g><g fill="#000000" fill-opacity="1"><g transform="translate(85.880094, 62.563286)"><g><path d="M 2.515625 0 L 2.515625 -36.03125 L 15.5625 -36.03125 L 15.5625 -28.75 L 15.828125 -28.75 C 16.285156 -30.382812 17.007812 -31.800781 18 -33 C 18.988281 -34.195312 20.1875 -35.117188 21.59375 -35.765625 C 23 -36.421875 24.515625 -36.75 26.140625 -36.75 C 28.878906 -36.75 31.125 -36.054688 32.875 -34.671875 C 34.632812 -33.296875 35.726562 -31.34375 36.15625 -28.8125 L 36.421875 -28.8125 C 36.835938 -30.40625 37.566406 -31.796875 38.609375 -32.984375 C 39.648438 -34.171875 40.929688 -35.09375 42.453125 -35.75 C 43.984375 -36.414062 45.660156 -36.75 47.484375 -36.75 C 49.835938 -36.75 51.898438 -36.226562 53.671875 -35.1875 C 55.441406 -34.144531 56.828125 -32.691406 57.828125 -30.828125 C 58.835938 -28.960938 59.34375 -26.800781 59.34375 -24.34375 L 59.34375 0 L 45.953125 0 L 45.953125 -20.890625 C 45.953125 -24.304688 44.492188 -26.015625 41.578125 -26.015625 C 40.234375 -26.015625 39.175781 -25.5625 38.40625 -24.65625 C 37.644531 -23.75 37.265625 -22.503906 37.265625 -20.921875 L 37.265625 0 L 24.578125 0 L 24.578125 -20.859375 C 24.578125 -24.296875 23.128906 -26.015625 20.234375 -26.015625 C 18.890625 -26.015625 17.828125 -25.554688 17.046875 -24.640625 C 16.273438 -23.722656 15.890625 -22.484375 15.890625 -20.921875 L 15.890625 0 Z M 2.515625 0 "/></g></g></g><g fill="#000000" fill-opacity="1"><g transform="translate(147.59958, 62.563286)"><g><path d="M 20.53125 0.90625 C 16.613281 0.90625 13.238281 0.171875 10.40625 -1.296875 C 7.582031 -2.765625 5.40625 -4.910156 3.875 -7.734375 C 2.351562 -10.566406 1.59375 -14.003906 1.59375 -18.046875 C 1.59375 -22.003906 2.367188 -25.390625 3.921875 -28.203125 C 5.484375 -31.023438 7.675781 -33.1875 10.5 -34.6875 C 13.332031 -36.195312 16.675781 -36.953125 20.53125 -36.953125 C 24.40625 -36.953125 27.757812 -36.203125 30.59375 -34.703125 C 33.4375 -33.210938 35.628906 -31.054688 37.171875 -28.234375 C 38.722656 -25.421875 39.5 -22.023438 39.5 -18.046875 C 39.5 -13.984375 38.734375 -10.539062 37.203125 -7.71875 C 35.679688 -4.90625 33.503906 -2.765625 30.671875 -1.296875 C 27.847656 0.171875 24.46875 0.90625 20.53125 0.90625 Z M 20.53125 -8.65625 C 22.207031 -8.65625 23.523438 -9.457031 24.484375 -11.0625 C 25.441406 -12.675781 25.921875 -14.992188 25.921875 -18.015625 C 25.921875 -20.953125 25.4375 -23.25 24.46875 -24.90625 C 23.5 -26.5625 22.1875 -27.390625 20.53125 -27.390625 C 18.894531 -27.390625 17.59375 -26.5625 16.625 -24.90625 C 15.65625 -23.25 15.171875 -20.953125 15.171875 -18.015625 C 15.171875 -14.992188 15.644531 -12.675781 16.59375 -11.0625 C 17.539062 -9.457031 18.851562 -8.65625 20.53125 -8.65625 Z M 20.53125 -8.65625 "/></g></g></g></g></g></g><g clip-path="url(#3e4932afd9)"><g clip-path="url(#384e65f1c6)"><g transform="matrix(1, 0, 0, 1, 195, -0.000000000000009326)"><g clip-path="url(#737c20f1b8)"><g clip-path="url(#89381e634d)"><g clip-path="url(#7551ff3972)"><path fill="#000000" d="M 0.398438 0.933594 L 161.125 0.933594 L 161.125 83.0625 L 0.398438 83.0625 Z M 0.398438 0.933594 " fill-opacity="1" fill-rule="nonzero"/></g></g></g></g></g></g><g transform="matrix(1, 0, 0, 1, 214, 3)"><g clip-path="url(#97356352d8)"><g fill="#ffffff" fill-opacity="1"><g transform="translate(0.982055, 61.716009)"><g><path d="M 2.578125 0 L 2.578125 -45.234375 L 15.109375 -45.234375 L 15.109375 -27.8125 L 15.359375 -27.8125 C 16.210938 -30.226562 17.5625 -32.078125 19.40625 -33.359375 C 21.257812 -34.648438 23.503906 -35.296875 26.140625 -35.296875 C 30.023438 -35.296875 32.992188 -34.144531 35.046875 -31.84375 C 37.097656 -29.550781 38.125 -26.320312 38.125 -22.15625 L 38.125 0 L 25.265625 0 L 25.265625 -19.3125 C 25.265625 -21.039062 24.847656 -22.40625 24.015625 -23.40625 C 23.179688 -24.414062 21.957031 -24.921875 20.34375 -24.921875 C 18.757812 -24.921875 17.539062 -24.390625 16.6875 -23.328125 C 15.84375 -22.273438 15.421875 -20.945312 15.421875 -19.34375 L 15.421875 0 Z M 2.578125 0 "/></g></g></g><g fill="#ffffff" fill-opacity="1"><g transform="translate(41.386232, 61.716009)"><g><path d="M 37.71875 -34.609375 L 37.71875 0 L 25.171875 0 L 25.171875 -6.796875 L 24.921875 -6.796875 C 24.234375 -4.460938 23.078125 -2.628906 21.453125 -1.296875 C 19.835938 0.0234375 17.734375 0.6875 15.140625 0.6875 C 12.671875 0.6875 10.460938 0.171875 8.515625 -0.859375 C 6.578125 -1.890625 5.046875 -3.390625 3.921875 -5.359375 C 2.804688 -7.328125 2.25 -9.679688 2.25 -12.421875 L 2.25 -34.609375 L 15.109375 -34.609375 L 15.109375 -15.296875 C 15.109375 -13.460938 15.5625 -12.066406 16.46875 -11.109375 C 17.382812 -10.160156 18.59375 -9.6875 20.09375 -9.6875 C 21.539062 -9.6875 22.695312 -10.195312 23.5625 -11.21875 C 24.425781 -12.25 24.859375 -13.597656 24.859375 -15.265625 L 24.859375 -34.609375 Z M 37.71875 -34.609375 "/></g></g></g><g fill="#ffffff" fill-opacity="1"><g transform="translate(81.5083, 61.716009)"><g><path d="M 26.109375 0.5 C 23.585938 0.5 21.414062 -0.0703125 19.59375 -1.21875 C 17.769531 -2.375 16.460938 -3.960938 15.671875 -5.984375 L 15.421875 -5.984375 L 15.421875 0 L 2.578125 0 L 2.578125 -45.234375 L 15.421875 -45.234375 L 15.421875 -28.375 L 15.671875 -28.375 C 16.484375 -30.476562 17.785156 -32.125 19.578125 -33.3125 C 21.367188 -34.507812 23.492188 -35.109375 25.953125 -35.109375 C 30.328125 -35.109375 33.679688 -33.570312 36.015625 -30.5 C 38.359375 -27.425781 39.53125 -23.03125 39.53125 -17.3125 C 39.53125 -11.601562 38.367188 -7.207031 36.046875 -4.125 C 33.734375 -1.039062 30.421875 0.5 26.109375 0.5 Z M 20.875 -25.203125 C 19.207031 -25.203125 17.875 -24.484375 16.875 -23.046875 C 15.882812 -21.617188 15.378906 -19.691406 15.359375 -17.265625 C 15.378906 -14.828125 15.878906 -12.90625 16.859375 -11.5 C 17.847656 -10.101562 19.1875 -9.40625 20.875 -9.40625 C 22.550781 -9.40625 23.882812 -10.117188 24.875 -11.546875 C 25.863281 -12.984375 26.359375 -14.90625 26.359375 -17.3125 C 26.359375 -18.914062 26.132812 -20.304688 25.6875 -21.484375 C 25.238281 -22.671875 24.601562 -23.585938 23.78125 -24.234375 C 22.957031 -24.878906 21.988281 -25.203125 20.875 -25.203125 Z M 20.875 -25.203125 "/></g></g></g></g></g></g></g></svg>